<?xml version="1.0" standalone="no"?>
<!DOCTYPE svg PUBLIC "-//W3C//DTD SVG 20010904//EN"
 "http://www.w3.org/TR/2001/REC-SVG-20010904/DTD/svg10.dtd">
<svg version="1.0" xmlns="http://www.w3.org/2000/svg"
 width="500.000000pt" height="500.000000pt" viewBox="0 0 500.000000 500.000000"
 preserveAspectRatio="xMidYMid meet">
<metadata>
Created by potrace 1.14, written by Peter Selinger 2001-2017
</metadata>
<g transform="translate(0.000000,500.000000) scale(0.100000,-0.100000)"
fill="#000000" stroke="none">
<path d="M0 2500 l0 -2500 2500 0 2500 0 0 2500 0 2500 -2500 0 -2500 0 0
-2500z m891 1653 c18 -15 46 -28 63 -29 54 -4 110 -16 140 -32 40 -20 174
-123 211 -161 l29 -31 16 37 c30 76 83 163 107 179 19 12 43 15 102 13 42 -2
81 0 88 4 16 10 69 -17 83 -42 12 -24 13 -71 2 -71 -5 0 -14 -11 -21 -24 -12
-21 -10 -30 15 -76 24 -44 37 -56 93 -83 166 -81 273 -253 255 -411 -20 -182
-105 -329 -250 -433 -29 -21 -56 -44 -59 -51 -8 -22 68 -48 295 -101 106 -25
268 -46 277 -37 4 4 2 16 -5 26 -13 21 -23 86 -22 140 1 19 1 75 2 124 l1 89
66 -7 c151 -16 312 -43 325 -56 6 -6 20 -10 33 -10 20 0 119 -44 193 -85 40
-22 130 -115 150 -155 10 -20 22 -53 25 -74 6 -29 11 -36 24 -30 57 24 140 44
181 44 26 0 84 -11 129 -24 45 -13 84 -20 86 -16 8 13 -29 37 -83 55 -59 19
-167 89 -194 126 -26 34 -27 102 -4 128 27 30 66 26 174 -14 51 -19 107 -35
125 -35 36 0 54 -13 112 -84 22 -27 59 -56 90 -72 61 -29 65 -36 65 -107 0
-49 -3 -54 -57 -109 -63 -64 -62 -77 5 -99 20 -6 46 -20 58 -31 12 -10 43 -23
70 -28 27 -5 132 -29 234 -53 102 -25 217 -50 255 -56 39 -7 115 -22 170 -35
101 -24 240 -50 327 -61 55 -7 67 -28 43 -75 -19 -37 -39 -46 -68 -32 -12 6
-47 13 -77 17 -30 3 -125 21 -210 40 -176 38 -292 55 -365 55 -32 0 -65 8 -89
21 -29 15 -48 19 -74 14 -26 -5 -39 -2 -56 13 -27 25 -75 34 -117 22 -26 -8
-39 -5 -70 12 -31 17 -48 20 -101 15 -58 -5 -69 -3 -143 33 -82 39 -196 62
-209 42 -3 -6 21 -39 55 -74 74 -77 124 -151 149 -219 11 -28 26 -59 35 -69 8
-9 15 -24 15 -32 0 -9 7 -21 15 -28 8 -7 15 -20 15 -29 0 -9 5 -22 10 -27 19
-19 27 -142 14 -212 -22 -120 -54 -227 -70 -237 -9 -5 -28 -19 -42 -31 -25
-20 -25 -21 -23 -180 1 -87 4 -169 7 -181 4 -13 2 -23 -3 -23 -11 0 -23 101
-23 192 0 31 -5 80 -12 109 -13 57 -5 49 -163 151 -43 29 -124 96 -180 149
-92 90 -105 108 -170 229 -38 73 -75 135 -83 138 -23 8 -30 -10 -70 -180 -23
-97 -69 -180 -124 -222 -18 -14 -72 -56 -120 -93 -128 -100 -220 -150 -302
-163 -38 -6 -80 -17 -95 -24 -14 -7 -44 -16 -66 -20 -63 -11 -191 -66 -216
-92 -12 -13 -26 -24 -31 -24 -13 0 -78 67 -78 81 0 30 116 202 186 274 42 44
99 112 126 150 91 131 123 168 268 315 164 166 217 206 290 220 67 13 70 15
70 53 1 18 7 49 15 70 13 39 13 39 -25 78 -21 21 -41 39 -45 39 -4 0 -53 21
-107 46 -76 34 -136 53 -249 76 -83 17 -153 28 -156 24 -3 -3 1 -14 10 -24 9
-10 33 -53 53 -97 31 -67 37 -93 43 -179 8 -120 -9 -268 -38 -330 -11 -22 -27
-58 -35 -78 -10 -25 -31 -49 -62 -70 -82 -56 -94 -72 -94 -122 0 -28 -6 -51
-16 -61 -25 -25 -44 -1 -44 56 0 53 -16 71 -76 83 -40 9 -50 -4 -57 -77 -6
-67 -34 -117 -80 -146 -37 -23 -34 -4 -36 -273 -1 -117 -5 -188 -11 -188 -6 0
-10 32 -10 73 -1 39 -5 119 -10 176 -9 111 -20 134 -61 124 -30 -8 -54 21 -69
84 -15 63 -82 173 -104 173 -20 0 -26 -11 -36 -77 -7 -38 -22 -74 -47 -112
-29 -43 -39 -69 -43 -111 -4 -40 -9 -55 -20 -55 -11 0 -15 13 -17 49 -1 27 -5
52 -10 56 -11 10 -124 -6 -191 -27 -49 -15 -57 -15 -115 1 -77 21 -102 37
-123 77 -15 30 -15 55 2 108 7 23 7 23 -20 6 -24 -16 -34 -17 -77 -7 -45 11
-56 10 -101 -10 -63 -27 -68 -21 -68 90 0 48 -4 82 -10 82 -5 0 -10 -7 -10
-15 0 -8 -9 -19 -19 -25 -16 -8 -23 -6 -35 12 -9 12 -16 30 -16 40 0 26 -18
31 -26 6 -4 -12 -10 -119 -13 -238 l-7 -215 -8 175 c-4 96 -14 208 -22 247
-18 87 -10 122 55 251 22 45 41 88 41 96 0 13 -99 86 -117 86 -3 0 -21 11 -39
25 -18 14 -40 25 -49 25 -41 0 -115 86 -115 133 0 8 -7 20 -15 27 -25 21 -106
147 -115 181 -5 18 -11 102 -12 188 l-2 156 36 75 c19 41 38 88 42 103 4 17
16 31 32 37 50 19 94 61 94 89 0 20 13 36 54 67 49 38 54 47 70 110 18 72 15
127 -10 176 -16 31 -17 37 -6 40 4 2 16 26 28 54 11 28 30 65 43 82 30 42 110
78 208 93 75 11 86 11 123 -6 22 -10 44 -15 48 -11 4 4 7 49 7 99 1 125 10
137 66 90z m-434 -2735 c-3 -7 -5 -2 -5 12 0 14 2 19 5 13 2 -7 2 -19 0 -25z
m10 -410 c-2 -24 -4 -7 -4 37 0 44 2 63 4 43 2 -21 2 -57 0 -80z m2 -140 c-1
-57 -2 -59 -9 -25 -6 35 -3 87 6 87 2 0 3 -28 3 -62z"/>
<path d="M841 3934 c0 -11 3 -14 6 -6 3 7 2 16 -1 19 -3 4 -6 -2 -5 -13z"/>
<path d="M1078 3768 c6 -24 78 -100 129 -136 l32 -23 -2 23 c-1 14 -29 50 -69
91 -71 70 -101 85 -90 45z"/>
<path d="M1267 3570 c4 -14 0 -20 -11 -20 -19 0 -20 -5 -6 -30 16 -31 31 -123
21 -129 -5 -3 22 -39 61 -79 l70 -74 32 16 c28 13 34 22 39 58 5 36 2 46 -20
68 -14 14 -42 50 -61 80 -56 88 -92 130 -112 130 -13 0 -17 -5 -13 -20z"/>
<path d="M1030 3496 c0 -8 7 -16 15 -20 17 -6 18 -4 9 18 -8 20 -24 21 -24 2z"/>
<path d="M1090 3485 c0 -28 18 -38 83 -48 43 -7 41 4 -9 47 -42 34 -74 35 -74
1z"/>
<path d="M666 3455 c4 -29 2 -35 -12 -35 -10 0 -15 -2 -12 -5 9 -10 118 29
118 42 0 17 -33 33 -69 33 -30 0 -31 -1 -25 -35z"/>
<path d="M1503 3463 c-14 -5 -18 -45 -6 -56 9 -9 53 33 53 50 0 13 -23 16 -47
6z"/>
<path d="M725 3320 c-15 -6 -8 -9 27 -9 26 -1 50 4 53 9 8 12 -52 12 -80 0z"/>
<path d="M828 3225 c-24 -48 -21 -60 11 -50 17 5 21 15 21 51 0 24 -2 44 -5
44 -3 0 -15 -20 -27 -45z"/>
<path d="M1442 3216 c3 -15 2 -29 -2 -31 -4 -3 2 -31 12 -62 12 -34 21 -87 22
-128 1 -60 -4 -80 -33 -143 -34 -72 -59 -99 -141 -156 -30 -20 -40 -34 -38
-50 4 -25 45 -33 79 -15 18 9 25 9 34 -5 7 -9 19 -16 27 -16 8 0 20 -6 27 -12
22 -22 41 18 41 87 0 38 6 69 15 82 8 12 21 57 29 100 12 71 12 91 -5 193 -23
146 -31 174 -54 178 -14 3 -17 -1 -13 -22z"/>
<path d="M1741 2864 c0 -11 3 -14 6 -6 3 7 2 16 -1 19 -3 4 -6 -2 -5 -13z"/>
<path d="M540 2851 c0 -14 75 -61 99 -61 40 0 19 31 -34 51 -56 21 -65 23 -65
10z"/>
<path d="M3165 2731 c-75 -26 -80 -29 -80 -56 0 -33 -16 -28 204 -70 74 -14
161 -28 193 -32 52 -5 58 -4 58 13 -1 34 -68 112 -122 144 -70 39 -141 40
-253 1z"/>
<path d="M1130 2662 c0 -5 -33 -42 -73 -83 -40 -42 -79 -90 -86 -107 -8 -18
-19 -32 -25 -32 -6 0 -22 -7 -35 -17 -17 -11 -42 -16 -85 -14 -66 2 -173 -22
-194 -43 -11 -11 -6 -17 31 -35 l46 -22 40 20 c22 12 82 32 133 46 230 62 220
57 255 109 42 64 50 109 26 153 -16 31 -33 43 -33 25z"/>
<path d="M1575 2570 c-36 -13 -84 -197 -56 -214 4 -3 14 14 20 37 7 23 24 70
38 105 28 70 27 83 -2 72z"/>
<path d="M2816 2518 c-40 -69 -56 -115 -56 -160 1 -37 7 -50 45 -90 24 -27 48
-48 53 -48 5 0 12 24 16 54 9 79 40 138 98 191 59 53 57 60 -28 80 -92 22
-100 20 -128 -27z"/>
<path d="M1350 2496 c-19 -13 -57 -54 -83 -92 -68 -98 -157 -235 -157 -243 0
-13 40 -90 50 -96 6 -4 10 16 10 54 l0 59 53 17 c28 10 60 24 69 33 16 14 19
12 33 -22 8 -20 22 -36 29 -36 16 0 36 50 36 90 0 14 7 68 16 120 12 69 13 99
5 116 -13 30 -18 30 -61 0z"/>
<path d="M1102 2337 c-26 -27 -28 -37 -8 -37 8 0 22 10 30 22 30 42 13 53 -22
15z"/>
<path d="M1537 2243 c-3 -3 6 -29 21 -57 23 -44 27 -48 30 -27 5 35 -6 69 -27
80 -10 6 -21 8 -24 4z"/>
<path d="M970 2220 c-11 -11 -20 -30 -20 -41 0 -20 2 -20 22 -7 24 16 42 55
28 63 -5 3 -18 -3 -30 -15z"/>
<path d="M1006 2031 c-4 -7 -5 -15 -2 -18 9 -9 19 4 14 18 -4 11 -6 11 -12 0z"/>
</g>
</svg>
