<?xml version="1.0" standalone="no"?>
<!DOCTYPE svg PUBLIC "-//W3C//DTD SVG 20010904//EN"
 "http://www.w3.org/TR/2001/REC-SVG-20010904/DTD/svg10.dtd">
<svg version="1.0" xmlns="http://www.w3.org/2000/svg"
 width="500.000000pt" height="500.000000pt" viewBox="0 0 500.000000 500.000000"
 preserveAspectRatio="xMidYMid meet">
<metadata>
Created by potrace 1.14, written by Peter Selinger 2001-2017
</metadata>
<g transform="translate(0.000000,500.000000) scale(0.100000,-0.100000)"
fill="#000000" stroke="none">
<path d="M2454 4881 c-109 -6 -124 -13 -151 -65 -9 -17 -30 -45 -48 -63 -31
-30 -69 -120 -77 -182 -2 -18 -15 -28 -54 -42 -56 -21 -134 -82 -134 -106 0
-8 -11 -47 -25 -88 -30 -86 -25 -111 29 -144 19 -12 45 -37 56 -56 12 -19 38
-48 57 -64 l36 -30 -2 -85 c-2 -96 9 -127 60 -171 18 -15 45 -46 60 -71 28
-44 38 -49 114 -58 22 -3 57 -8 78 -12 31 -5 45 -1 77 20 27 18 53 26 82 26
55 0 63 -6 81 -61 50 -147 28 -307 -96 -694 -30 -94 -63 -206 -72 -250 -17
-75 -35 -118 -35 -84 0 29 -68 156 -113 211 -41 50 -46 62 -48 114 l-3 59 65
7 c124 14 196 62 218 145 16 63 43 196 48 236 6 43 -1 45 -57 17 -36 -18 -46
-19 -107 -8 -121 20 -208 -9 -246 -82 -28 -54 -20 -159 18 -230 25 -49 51
-180 35 -180 -15 0 -64 58 -101 121 -86 148 -154 193 -294 193 -140 0 -184
-34 -280 -223 -63 -124 -82 -148 -182 -236 -33 -28 -44 -47 -52 -86 -13 -60
-14 -119 -2 -138 10 -15 31 -7 31 13 0 7 9 21 20 31 15 14 41 18 129 20 81 3
121 8 153 23 51 23 118 92 151 159 40 79 53 86 140 78 81 -8 126 6 147 45 17
32 62 25 112 -16 54 -45 56 -51 20 -59 -17 -3 -54 -24 -83 -47 -30 -22 -85
-55 -124 -73 -80 -38 -121 -77 -161 -155 -23 -46 -28 -71 -32 -156 -3 -63 0
-115 7 -136 19 -59 75 -126 147 -181 79 -59 83 -63 124 -135 17 -29 36 -52 43
-49 7 2 15 34 18 80 6 70 13 90 85 233 l79 156 0 87 c-1 101 -10 123 -96 223
-33 38 -59 75 -59 83 0 19 37 42 80 50 31 6 38 3 56 -22 30 -41 68 -118 89
-183 14 -40 17 -75 14 -130 -2 -41 -4 -192 -3 -335 0 -293 6 -340 79 -645 102
-431 130 -640 122 -935 -5 -194 -8 -219 -54 -414 -11 -44 21 -17 35 30 32 112
46 236 46 434 1 283 -27 491 -119 875 -77 322 -99 488 -72 552 13 32 23 39 68
52 29 9 58 16 65 16 22 0 41 -64 48 -158 7 -113 25 -156 75 -181 49 -25 124
-48 196 -61 40 -7 77 -22 111 -45 28 -19 55 -35 62 -35 16 0 27 98 27 241 0
116 -2 128 -24 161 -73 106 -273 152 -477 109 -56 -11 -109 -24 -118 -27 -35
-13 -8 35 58 104 l40 42 103 0 c77 0 127 -6 199 -25 117 -30 220 -32 319 -4
64 17 214 49 308 64 20 3 37 11 37 16 0 15 -80 108 -168 195 -115 114 -211
149 -305 109 -25 -10 -71 -15 -146 -15 l-110 0 -62 -43 c-69 -47 -153 -159
-179 -238 -9 -26 -31 -58 -57 -82 -23 -21 -54 -62 -69 -90 l-26 -52 6 160 c10
265 37 405 149 756 80 252 100 356 95 504 -2 68 -9 130 -16 143 -17 30 -7 28
58 -13 66 -43 106 -45 149 -9 29 24 35 25 95 19 l64 -7 90 88 c95 95 118 128
128 193 6 36 3 43 -25 71 l-31 32 25 30 c17 20 25 42 25 66 0 30 7 43 39 72
24 22 44 52 52 78 12 40 11 44 -13 70 -14 15 -31 37 -37 50 -7 12 -25 28 -42
35 -29 12 -30 14 -32 82 -2 60 -8 80 -40 137 -21 37 -52 77 -70 89 -17 13 -50
39 -73 59 -39 36 -42 37 -145 43 -78 5 -114 3 -144 -7 -36 -13 -43 -13 -65 2
-52 35 -134 72 -154 70 -12 -1 -66 -4 -122 -7z m209 -54 c26 -15 47 -31 47
-35 0 -14 -90 -52 -123 -52 -17 -1 -50 -8 -72 -16 -22 -8 -55 -20 -73 -25 -42
-13 -105 -96 -132 -174 -23 -67 -25 -153 -6 -208 l14 -38 -32 20 c-50 32 -86
110 -86 190 0 92 34 202 77 247 18 20 40 49 48 64 26 50 42 55 171 55 112 0
122 -2 167 -28z m304 -31 c57 -2 66 -5 100 -37 21 -19 54 -47 73 -61 52 -38
100 -136 100 -205 0 -64 12 -64 -152 -1 -73 28 -108 47 -108 57 0 9 -9 35 -20
59 -14 32 -29 47 -57 58 -21 9 -57 34 -80 55 -27 25 -53 39 -70 40 -21 0 -12
6 37 24 38 14 75 21 90 18 14 -3 53 -6 87 -7z m-166 -93 c21 -23 22 -25 4 -18
-34 15 -138 18 -193 5 -38 -8 -64 -22 -94 -51 -44 -41 -58 -39 -58 9 0 31 65
60 162 71 133 15 152 14 179 -16z m14 -57 c49 -29 78 -80 78 -139 0 -30 -8
-46 -34 -73 -46 -48 -105 -77 -155 -76 -34 0 -177 41 -190 55 -2 2 -7 19 -10
37 l-7 34 40 -32 c51 -42 96 -55 143 -42 44 12 158 84 166 105 11 27 -5 63
-45 105 -44 47 -79 52 -140 20 -41 -21 -91 -73 -91 -95 0 -26 45 -66 80 -71
67 -11 140 69 96 105 -22 19 -84 25 -101 11 -25 -20 -18 -58 13 -74 l27 -15
-24 -1 c-26 0 -61 25 -61 45 0 36 108 99 146 85 28 -11 74 -67 74 -91 0 -24
-107 -96 -155 -105 -45 -8 -100 20 -136 69 -37 51 -36 69 4 112 61 66 196 81
282 31z m-358 -64 c19 -38 24 -62 20 -87 -13 -81 29 -146 127 -195 64 -31 65
-33 92 -103 15 -40 31 -78 37 -85 5 -7 8 -14 6 -15 -2 -2 -28 -17 -57 -35
l-53 -32 -67 68 c-37 37 -97 86 -133 110 -54 35 -71 52 -87 90 -34 79 -36 113
-12 194 22 76 90 185 97 158 3 -8 16 -39 30 -68z m458 44 c13 -13 27 -37 30
-53 4 -15 15 -52 26 -81 23 -66 24 -108 3 -184 -22 -76 -80 -143 -152 -175
-52 -23 -55 -23 -68 -6 -7 10 -16 29 -19 43 -4 14 -16 46 -27 72 -17 41 -28
51 -84 79 -73 37 -77 49 -8 25 68 -23 126 -20 182 8 115 59 151 150 98 249
-28 51 -19 61 19 23z m-186 -70 c9 -10 8 -16 -3 -25 -11 -10 -21 -9 -46 4 -17
9 -28 20 -25 25 9 15 61 12 74 -4z m-553 -108 c6 -35 14 -71 19 -81 6 -16 4
-17 -19 -11 -52 13 -25 -15 67 -66 145 -83 237 -148 305 -218 47 -47 62 -68
56 -80 -4 -10 -9 -32 -12 -49 -4 -30 -7 -32 -30 -26 -14 3 -50 19 -79 34 -29
15 -118 49 -198 75 -128 41 -149 51 -178 84 -69 79 -85 96 -111 113 -31 21
-32 41 -6 98 11 24 20 54 20 66 0 30 43 77 93 102 23 12 47 21 52 21 6 0 16
-28 21 -62z m913 13 c37 -16 83 -32 102 -36 56 -12 124 -52 137 -79 6 -15 19
-29 27 -32 33 -13 8 -84 -44 -122 -26 -19 -31 -29 -31 -63 0 -35 -6 -48 -39
-80 -34 -35 -44 -39 -87 -39 -42 0 -109 -15 -204 -45 -21 -7 -21 -6 -7 22 20
36 60 73 119 107 59 33 78 60 78 109 0 46 -27 103 -85 177 -40 52 -63 110 -43
110 5 0 40 -13 77 -29z m2 -187 c39 -80 33 -106 -37 -151 -83 -54 -103 -73
-131 -121 -15 -26 -28 -49 -30 -51 -6 -7 -173 -30 -225 -30 -44 -1 -48 1 -48
23 0 45 49 87 166 142 86 41 120 63 152 99 42 48 72 117 72 169 l0 29 25 -23
c14 -14 40 -52 56 -86z m-812 -275 c53 -17 97 -32 99 -34 2 -1 -26 0 -62 2
-42 4 -66 2 -66 -5 0 -13 24 -22 63 -22 18 0 75 -12 126 -25 59 -16 122 -25
165 -25 112 1 281 27 396 62 128 39 226 44 259 14 47 -43 18 -112 -94 -223
l-86 -86 -64 7 c-58 6 -66 4 -93 -19 -39 -33 -77 -32 -132 5 -56 37 -141 70
-182 70 -16 0 -52 -12 -78 -26 -38 -21 -56 -25 -82 -19 -18 3 -55 8 -83 10
-41 3 -54 9 -70 31 -11 15 -43 53 -71 85 -38 41 -54 68 -59 99 -7 42 1 130 12
130 3 0 49 -14 102 -31z m289 -650 c12 0 22 -1 22 -4 0 -2 -32 -25 -70 -51
-73 -48 -136 -118 -182 -204 l-26 -49 -15 23 c-51 77 -57 188 -15 241 36 46
72 56 173 50 50 -4 100 -6 113 -6z m47 -46 c-4 -16 -11 -55 -16 -88 -15 -93
-42 -140 -95 -166 -25 -12 -72 -24 -105 -28 l-60 -7 6 24 c8 31 62 116 106
165 26 29 146 119 168 126 2 0 0 -11 -4 -26z m-601 -144 c38 -14 68 -34 93
-63 39 -44 93 -132 77 -124 -143 68 -261 86 -340 53 -35 -14 -138 -95 -234
-182 -56 -51 -70 -55 -37 -10 14 17 48 79 77 137 70 140 84 158 144 186 65 30
145 32 220 3z m58 -170 c35 -11 71 -27 81 -34 18 -13 17 -16 -17 -50 l-36 -35
-89 2 c-104 3 -116 -3 -161 -92 -32 -62 -86 -122 -133 -146 -22 -12 -67 -18
-147 -22 -63 -2 -123 -9 -132 -14 -24 -12 -23 5 1 59 14 30 39 55 94 95 41 29
116 88 167 131 144 123 151 127 236 127 47 0 96 -7 136 -21z m243 -390 c45
-50 58 -98 52 -182 -4 -62 -13 -86 -76 -211 -39 -78 -74 -156 -77 -174 -4 -19
-11 -29 -15 -25 -15 15 -68 261 -80 370 -16 145 9 260 73 330 l20 22 36 -47
c19 -26 50 -63 67 -83z m-200 25 c-42 -101 -32 -279 29 -527 l24 -99 -37 34
c-20 19 -61 53 -91 75 -106 80 -144 182 -121 318 21 121 79 202 171 242 25 11
46 19 47 19 1 -1 -9 -29 -22 -62z m1200 -69 c58 -34 139 -108 191 -176 25 -32
42 -59 38 -59 -3 0 -34 20 -68 44 -113 80 -162 100 -246 100 -128 -1 -284 -21
-342 -45 -29 -12 -89 -46 -133 -75 -44 -29 -81 -49 -83 -44 -11 30 103 178
168 220 52 33 58 35 179 41 69 3 140 11 156 17 40 14 91 5 140 -23z m23 -140
c29 -13 82 -45 118 -71 l66 -47 -108 -23 c-60 -13 -134 -30 -164 -39 -88 -25
-189 -22 -314 9 -80 21 -125 27 -172 24 -35 -2 -64 -1 -64 3 0 11 120 85 184
115 45 20 85 29 160 36 55 4 102 10 104 13 3 3 35 5 71 5 49 0 80 -7 119 -25z
m-353 -331 c72 -25 121 -60 142 -102 20 -40 23 -147 9 -256 l-8 -59 -56 106
c-32 58 -71 126 -89 151 -30 42 -138 130 -208 170 -30 17 -28 17 65 12 53 -2
117 -12 145 -22z m-220 -17 c45 -22 158 -112 189 -151 30 -37 136 -223 136
-239 0 -4 -15 2 -32 13 -18 10 -55 22 -83 26 -59 8 -179 48 -211 69 -30 19
-44 72 -44 163 0 41 -6 88 -15 107 l-14 35 27 -6 c15 -4 36 -11 47 -17z"/>
</g>
</svg>
